<svg width="25" height="24" viewBox="0 0 25 24" fill="none" xmlns="http://www.w3.org/2000/svg">
<g clip-path="url(#clip0_3001_80)">
<path d="M2.33325 10.25V3.75C2.65825 3.4575 2.84159 3.2925 3.16659 3H21.4999C21.8249 3.2925 22.0083 3.4575 22.3333 3.75V11.25M12.8333 22H3.83325L2.33325 20.75V9.25L3.83325 8H20.8333L22.3333 9.25M7.33325 12H9.33325M7.33325 15H9.33325M7.33325 18H9.33325M11.3333 12H13.3333M11.3333 15H13.3333M11.3333 18H13.3333M7.33325 1V5M17.3333 1V5M18.3333 15V18H20.3333M23.3333 17C23.3333 19.7614 21.0947 22 18.3333 22C15.5718 22 13.3333 19.7614 13.3333 17C13.3333 14.2386 15.5718 12 18.3333 12C21.0947 12 23.3333 14.2386 23.3333 17Z" stroke="#55555C" stroke-width="1.5" stroke-miterlimit="10"/>
</g>
<defs>
<clipPath id="clip0_3001_80">
<rect width="24" height="24" fill="white" transform="translate(0.333252)"/>
</clipPath>
</defs>
</svg>
