<svg xmlns="http://www.w3.org/2000/svg" version="1.1" xmlns:xlink="http://www.w3.org/1999/xlink" width="64" height="64"><svg xmlns="http://www.w3.org/2000/svg" version="1.1" xmlns:xlink="http://www.w3.org/1999/xlink" width="64" height="64" x="0" y="0" viewBox="0 0 73 73" style="enable-background:new 0 0 512 512" xml:space="preserve" class=""><g><path d="M66.622 56.787c-.28-.39-2.42-2.81-5.1-5.24 1.15-1.55 2.02-3.31 2.57-5.21 1.84-6.43-.44-12.98-5.11-16.96v-18.8c0-3.35-2.74-6.07-6.08-6.07h-42.15c-3.29 0-6.08 2.69-6.08 6.07v35.83a6.09 6.09 0 0 0 6.08 6.08h25.25a16.328 16.328 0 0 0 15.55 5.39c1.35 3.05 2.95 5.94 3.86 7.18 2.71 3.65 7.31 4.4 10.3 2.21 3.23-2.39 3.39-7.15.91-10.48zm-41.94-6.3h-13.93c-2.25 0-4.08-1.83-4.08-4.08v-4.47h18.01zm0-10.55H6.672v-7.04h18.01zm0-9.04H6.672v-7.04h18.01zm0-9.04H6.672v-6.68h18.01zm2 28.63v-8.55h5.36c.02 3.06.91 6.02 2.49 8.55zm5.48-10.55h-5.48v-7.04h8.03a16.275 16.275 0 0 0-2.55 7.04zm3.19-9.04h-8.67v-7.04h8.67zm0-9.04h-8.67v-6.68h8.67zm12.68-6.68h8.95v6.68h-8.95zm0 8.68h8.95v4.07a16.405 16.405 0 0 0-8.95-2.43zm-10.68-8.68h8.68v6.68h-8.68zm0 8.68h8.68v1.81c-3.25.48-6.27 1.93-8.68 4.13zm11.66 29.24c-5.29.36-10.44-3.2-11.66-8.96.05-.1-2.16-13.2 10.68-13.59 7.47-.28 13.44 7.05 11.17 14.53-1.34 4.38-5.29 7.82-10.19 8.02zm15.51 12.56c-2.37 1.75-5.74.61-7.5-1.79-.8-1.08-2.26-3.72-3.52-6.51 2.5-.83 4.89-2.29 6.74-4.28 2.4 2.19 4.4 4.39 4.77 4.89 1.88 2.52 1.77 6.03-.49 7.69z" fill="#000000" opacity="1" data-original="#000000" class=""></path><path d="m51.558 38.195-4.639 4.639-1.702-1.703a1 1 0 1 0-1.414 1.414l2.41 2.41a1 1 0 0 0 1.413 0l5.347-5.346a1 1 0 1 0-1.415-1.414z" fill="#000000" opacity="1" data-original="#000000" class=""></path></g></svg><style>@media (prefers-color-scheme: light) { :root { filter: none; } }
@media (prefers-color-scheme: dark) { :root { filter: none; } }
</style></svg>